<svg width="24" height="24" viewBox="0 0 24 24" fill="none" xmlns="http://www.w3.org/2000/svg">
<path d="M2.8104 17.025C2.6064 17.358 2.3754 17.748 2.1924 18.057C2.11224 18.1972 2.08903 18.3629 2.12755 18.5198C2.16608 18.6767 2.2634 18.8128 2.3994 18.9L6.5004 21.432C6.57151 21.476 6.65068 21.5055 6.73328 21.5186C6.81589 21.5318 6.90029 21.5283 6.98156 21.5085C7.06282 21.4887 7.13932 21.4528 7.2066 21.4031C7.27388 21.3534 7.33058 21.2908 7.3734 21.219C7.5384 20.943 7.7484 20.586 7.9734 20.205C9.5994 17.535 11.2464 17.862 14.1894 19.263L18.2574 21.195C18.3336 21.2315 18.4164 21.2523 18.5008 21.2561C18.5852 21.26 18.6695 21.2468 18.7487 21.2174C18.8279 21.188 18.9004 21.143 18.9618 21.085C19.0233 21.0271 19.0724 20.9573 19.1064 20.88L21.0594 16.47C21.1258 16.3203 21.1316 16.1508 21.0756 15.997C21.0197 15.8432 20.9064 15.717 20.7594 15.645C19.9014 15.24 18.1944 14.445 16.6644 13.695C11.0994 11.007 6.4044 11.184 2.8104 17.025Z" fill="url(#paint0_linear)"/>
<path d="M21.1999 7.00199C21.4069 6.66899 21.6379 6.27899 21.8179 5.96999C21.9015 5.82739 21.9253 5.65755 21.8843 5.49743C21.8433 5.33732 21.7407 5.19987 21.5989 5.11499L17.5039 2.58299C17.4328 2.53894 17.3536 2.50948 17.271 2.49634C17.1884 2.48321 17.104 2.48665 17.0227 2.50648C16.9415 2.52631 16.865 2.56212 16.7977 2.61183C16.7304 2.66153 16.6737 2.72414 16.6309 2.79599C16.4689 3.07199 16.2559 3.42899 16.0309 3.80999C14.3989 6.49199 12.7669 6.16499 9.82089 4.76399L5.75589 2.83199C5.68061 2.79503 5.5987 2.77347 5.51498 2.76857C5.43125 2.76368 5.34739 2.77555 5.26832 2.80349C5.18924 2.83143 5.11654 2.87488 5.05447 2.93129C4.99241 2.9877 4.94224 3.05594 4.90689 3.13199L2.95389 7.55399C2.88662 7.70395 2.88031 7.87419 2.9363 8.02872C2.99228 8.18324 3.10618 8.30993 3.25389 8.38199C4.11489 8.78699 5.82189 9.58199 7.34889 10.332C12.8989 13.02 17.6089 12.843 21.1999 7.00199Z" fill="url(#paint1_linear)"/>
<g style="mix-blend-mode:color">
<rect width="24" height="24" fill="rgba(243, 243, 243, 1)"/>
</g>
<defs>
<linearGradient id="paint0_linear" x1="20.9364" y1="22.743" x2="8.5284" y2="15.612" gradientUnits="userSpaceOnUse">
<stop stop-color="#0052CC"/>
<stop offset="0.92" stop-color="#2380FB"/>
<stop offset="1" stop-color="#2684FF"/>
</linearGradient>
<linearGradient id="paint1_linear" x1="-262999" y1="-24811.1" x2="-262548" y2="-24293.1" gradientUnits="userSpaceOnUse">
<stop stop-color="#0052CC"/>
<stop offset="0.92" stop-color="#2380FB"/>
<stop offset="1" stop-color="#2684FF"/>
</linearGradient>
</defs>
</svg>
