<svg width="1440" height="716" viewBox="0 0 1440 716" fill="none" xmlns="http://www.w3.org/2000/svg">
<path d="M355.2 330.1C355.2 330.1 355.1 330.1 355.2 330.1C355.1 330.1 355.2 330.1 355.2 330.1ZM355.2 330.1C355.2 330.1 355.2 330.2 355.2 330.1ZM355.2 330.1C355.1 330.2 355.1 330.1 355.2 330.1ZM355.2 330.1C355.1 330.1 355.1 330 355.2 330.1ZM355.2 330.1C355.2 330 355.3 330.1 355.2 330.1ZM355.2 330.1C355.3 330.2 355.2 330.2 355.2 330.2C355.1 330.2 355.1 330.1 355.1 330.1C355.1 330 355.2 330 355.2 330C355.3 330 355.4 330.1 355.4 330.2C355.4 330.3 355.3 330.4 355.2 330.4C355.1 330.4 355 330.3 355 330.2C355 330 355.1 329.9 355.3 329.9C355.5 329.9 355.7 330.1 355.7 330.3C355.7 330.5 355.5 330.7 355.3 330.7C355 330.7 354.8 330.5 354.8 330.2C354.8 329.9 355.1 329.6 355.4 329.6C355.8 329.6 356.1 329.9 356.1 330.3C356.1 330.8 355.7 331.2 355.2 331.2C354.6 331.2 354.1 330.7 354.1 330.1C354.1 329.4 354.7 328.8 355.4 328.8C356.3 328.8 356.9 329.5 356.9 330.3C356.9 331.3 356.1 332.1 355.1 332.1C353.9 332.1 352.9 331.1 352.9 329.9C352.9 328.4 354.1 327.2 355.6 327.2C357.4 327.2 358.8 328.6 358.8 330.4C358.8 332.5 357.1 334.2 355 334.2C352.5 334.2 350.4 332.1 350.4 329.6C350.4 326.6 352.9 324.1 355.9 324.1C359.6 324.1 362.5 327.1 362.5 330.7C362.5 335.1 358.9 338.6 354.6 338.6C349.3 338.6 345.1 334.3 345.1 329.1C345.1 322.8 350.2 317.7 356.5 317.7C364.1 317.7 370.2 323.8 370.2 331.4C370.2 340.5 362.8 347.9 353.7 347.9C342.8 347.9 333.9 339.1 333.9 328.1C333.9 315 344.5 304.4 357.6 304.4C373.3 304.4 386.1 317.1 386.1 332.9C386.1 351.8 370.8 367 352 367C329.4 367 311 348.7 311 326C311 298.8 333 276.8 360.2 276.8C392.8 276.8 419.2 303.2 419.2 335.8C419.2 374.9 387.5 406.6 348.4 406.6C301.5 406.6 263.4 368.6 263.4 321.6C263.4 265.3 309 219.6 365.4 219.6C433 219.6 487.8 274.4 487.8 342C487.8 423.1 422.1 488.8 341 488.8C243.7 488.8 164.8 409.9 164.8 312.6C164.8 195.8 259.5 101.2 376.2 101.2C516.3 101.2 629.9 214.8 629.9 354.9C629.9 523 493.6 659.4 325.4 659.4C123.6 659.4 -39.9 495.8 -39.9 294.1C-39.9 52 156.4 -144.3 398.5 -144.3C689.1 -144.3 924.6 91.2 924.6 381.8C924.6 730.5 642 1013.1 293.3 1013.1C-125.3 1013.2 -464.5 674 -464.5 255.6C-464.5 -246.5 -57.5 -653.5 444.6 -653.5C1047.1 -653.5 1535.5 -165.1 1535.5 437.4" stroke="#969696" stroke-miterlimit="10"/>
</svg>
