<svg width="24" height="24" viewBox="0 0 24 24" fill="none" xmlns="http://www.w3.org/2000/svg">
<path d="M12.0852 23.1955L16.405 9.84741H7.77148L12.0852 23.1955Z" fill="#E24329"/>
<path d="M1.71869 9.84741L0.403194 13.9027C0.284169 14.271 0.412719 14.6774 0.726894 14.907L12.0831 23.1954L1.71869 9.84741Z" fill="#FCA326"/>
<path d="M1.71875 9.84735H7.76945L5.16537 1.80848C5.0321 1.39717 4.4513 1.39717 4.31323 1.80848L1.71875 9.84735Z" fill="#E24329"/>
<path d="M22.4566 9.84741L23.7673 13.9027C23.8864 14.271 23.7578 14.6774 23.4436 14.907L12.0859 23.1955L22.4566 9.84741Z" fill="#FCA326"/>
<path d="M22.455 9.84735H16.4043L19.0036 1.80848C19.1368 1.39717 19.7176 1.39717 19.8557 1.80848L22.455 9.84735Z" fill="#E24329"/>
<path d="M12.0859 23.1955L16.4059 9.84741H22.4566L12.0859 23.1955Z" fill="#FC6D26"/>
<path d="M12.0831 23.1955L1.71875 9.84741H7.76945L12.0831 23.1955Z" fill="#FC6D26"/>
<g style="mix-blend-mode:color">
<rect width="24" height="24" fill="rgba(243, 243, 243, 1)"/>
</g>
</svg>
