<svg width="24" height="24" viewBox="0 0 24 24" fill="none" xmlns="http://www.w3.org/2000/svg">
<path d="M8.7608 0.059082C7.4412 0.059082 6.3716 1.13108 6.3716 2.45308C6.37128 2.76715 6.43283 3.07821 6.55273 3.36849C6.67263 3.65877 6.84853 3.9226 7.07039 4.1449C7.29224 4.36721 7.55571 4.54363 7.84576 4.66411C8.1358 4.78459 8.44673 4.84677 8.7608 4.84708H11.1504V2.45308C11.1509 1.81875 10.8995 1.21019 10.4514 0.761238C10.0032 0.312287 9.39513 0.0597183 8.7608 0.059082ZM8.7608 6.44308H2.3892C1.0696 6.44308 0 7.51508 0 8.83748C0 10.1595 1.0696 11.2315 2.3892 11.2315H8.7612C10.0804 11.2315 11.1504 10.1595 11.1504 8.83748C11.1504 7.51508 10.0804 6.44308 8.7608 6.44308Z" fill="#36C5F0"/>
<path d="M23.8926 8.83748C23.8926 7.51508 22.8226 6.44308 21.503 6.44308C20.1834 6.44308 19.1138 7.51508 19.1138 8.83748V11.2315H21.503C22.1373 11.2308 22.7454 10.9783 23.1935 10.5293C23.6417 10.0804 23.8931 9.47181 23.8926 8.83748ZM17.521 8.83748V2.45308C17.5215 1.81875 17.2701 1.21019 16.8219 0.761238C16.3738 0.312287 15.7657 0.0597183 15.1314 0.059082C13.8118 0.059082 12.7422 1.13108 12.7422 2.45308V8.83708C12.7422 10.1599 13.8118 11.2319 15.1314 11.2319C15.7657 11.2312 16.3738 10.9787 16.8219 10.5297C17.2701 10.0808 17.5215 9.47221 17.521 8.83788" fill="#2EB67D"/>
<path d="M15.1314 24C15.7657 23.9994 16.3738 23.7468 16.8219 23.2979C17.2701 22.8489 17.5215 22.2404 17.521 21.606C17.5215 20.9717 17.2701 20.3631 16.8219 19.9142C16.3738 19.4652 15.7657 19.2127 15.1314 19.212H12.7422V21.606C12.7422 22.928 13.8118 24 15.1314 24ZM15.1314 17.616H21.5034C22.8226 17.616 23.8926 16.544 23.8926 15.2216C23.8931 14.5873 23.6417 13.9787 23.1935 13.5298C22.7454 13.0808 22.1373 12.8283 21.503 12.8276H15.1314C13.8118 12.8276 12.7422 13.8996 12.7422 15.2216C12.7419 15.5357 12.8034 15.8468 12.9233 16.137C13.0432 16.4273 13.2191 16.6912 13.441 16.9135C13.6628 17.1358 13.9263 17.3122 14.2163 17.4327C14.5064 17.5532 14.8173 17.6153 15.1314 17.6156" fill="#ECB22E"/>
<path d="M1.20553e-06 15.2216C-0.000314125 15.5357 0.0612342 15.8468 0.181132 16.137C0.30103 16.4273 0.476929 16.6912 0.698787 16.9135C0.920645 17.1358 1.18412 17.3122 1.47416 17.4327C1.7642 17.5532 2.07513 17.6153 2.3892 17.6156C3.02353 17.615 3.63163 17.3624 4.07976 16.9135C4.52788 16.4645 4.77933 15.856 4.7788 15.2216V12.8276H2.3892C1.0696 12.8276 1.20553e-06 13.8996 1.20553e-06 15.2216ZM6.3716 15.2216V21.6056C6.3716 22.928 7.4412 24 8.7608 24C9.39513 23.9994 10.0032 23.7468 10.4514 23.2979C10.8995 22.8489 11.1509 22.2404 11.1504 21.606V15.2216C11.1507 14.9075 11.0892 14.5964 10.9692 14.3061C10.8493 14.0158 10.6734 13.752 10.4515 13.5297C10.2296 13.3074 9.96606 13.1309 9.67597 13.0105C9.38588 12.89 9.07491 12.8279 8.7608 12.8276C7.4412 12.8276 6.3716 13.8996 6.3716 15.2216Z" fill="#E01E5A"/>
<g style="mix-blend-mode:color">
<rect width="24" height="24" fill="rgba(243, 243, 243, 1)"/>
</g>
</svg>
