<svg width="25" height="25" viewBox="0 0 25 25" fill="none" xmlns="http://www.w3.org/2000/svg">
<path d="M11.9148 23.3481C5.60999 23.3481 0.480469 18.2191 0.480469 11.9141C0.480469 5.60902 5.60999 0.47998 11.9148 0.47998C18.2196 0.47998 23.3491 5.6095 23.3491 11.9143C23.3491 18.2191 18.2196 23.3481 11.9148 23.3481Z" fill="#85EA2D"/>
<path d="M12.0065 1.14456C18.0055 1.14456 22.8684 6.00744 22.8684 12.0065C22.8684 18.0053 18.0055 22.8684 12.0065 22.8684C6.00768 22.8684 1.14456 18.0053 1.14456 12.0065C1.14456 6.00768 6.00768 1.14456 12.0065 1.14456ZM12.0065 0C5.38608 0 0 5.38608 0 12.0065C0 18.6269 5.38608 24.013 12.0065 24.013C18.6269 24.013 24.0132 18.6269 24.0132 12.0065C24.0132 5.38608 18.6269 0 12.0065 0Z" fill="#173647"/>
<path d="M7.66302 8.01452C7.62606 8.4254 7.6767 8.8502 7.64934 9.26564C7.61694 9.68132 7.56606 10.0922 7.48302 10.5031C7.36758 11.0894 7.00278 11.5327 6.49974 11.902C7.4787 12.5392 7.58934 13.5271 7.6539 14.5291C7.6863 15.0693 7.67238 15.6141 7.72782 16.1496C7.76934 16.565 7.93086 16.6713 8.36046 16.685C8.5359 16.6896 8.71566 16.685 8.91918 16.685V17.9685C7.64958 18.1855 6.6015 17.8255 6.34278 16.7498C6.2595 16.3574 6.20406 15.9556 6.18582 15.5493C6.15798 15.12 6.20406 14.6906 6.1719 14.2612C6.0795 13.0838 5.9271 12.6868 4.80078 12.6314V11.1679C4.88382 11.1494 4.9623 11.1355 5.04534 11.1264C5.66406 11.094 5.9271 10.9046 6.06102 10.2952C6.12582 9.95372 6.16278 9.6074 6.17646 9.25652C6.22278 8.58716 6.2043 7.90388 6.3195 7.23908C6.48102 6.2834 7.07214 5.82164 8.05566 5.7662C8.33262 5.75228 8.61438 5.7662 8.93286 5.7662V7.07756C8.79894 7.08692 8.6835 7.10516 8.5635 7.10516C7.76478 7.07732 7.72302 7.34972 7.66302 8.01452ZM9.20046 11.0524H9.18198C8.72022 11.0294 8.32326 11.3894 8.29998 11.8512C8.27694 12.3175 8.63694 12.7147 9.0987 12.7375H9.15414C9.61134 12.7653 10.0035 12.4142 10.0313 11.9572V11.9112C10.0407 11.4448 9.66678 11.0618 9.20046 11.0524ZM12.0953 11.0524C11.6475 11.0385 11.2733 11.3894 11.2597 11.8327C11.2597 11.8605 11.2597 11.8836 11.2645 11.9112C11.2645 12.4144 11.606 12.7377 12.1232 12.7377C12.631 12.7377 12.9497 12.4053 12.9497 11.8836C12.9449 11.3803 12.6077 11.0479 12.0953 11.0524ZM15.0596 11.0524C14.5887 11.0431 14.1961 11.4172 14.1824 11.8881C14.1824 12.359 14.5609 12.7375 15.0317 12.7375H15.0411C15.4659 12.8114 15.8953 12.4005 15.9231 11.9066C15.9459 11.4494 15.5305 11.0524 15.0596 11.0524ZM19.1271 11.1216C18.5914 11.0985 18.3236 10.9185 18.1899 10.4104C18.1066 10.0874 18.056 9.7502 18.0375 9.4178C18.0005 8.79908 18.0051 8.1758 17.9636 7.55708C17.8666 6.089 16.8049 5.5766 15.2626 5.83028V7.10468C15.5072 7.10468 15.6965 7.10468 15.8859 7.10924C16.2137 7.1138 16.4631 7.2386 16.4953 7.6034C16.5277 7.9358 16.5277 8.27276 16.5601 8.60996C16.6249 9.27956 16.6616 9.95804 16.777 10.6183C16.8788 11.1631 17.2527 11.5694 17.7188 11.9018C16.9018 12.4512 16.6616 13.236 16.6201 14.118C16.597 14.7228 16.5831 15.3321 16.5509 15.9417C16.5231 16.4956 16.3294 16.6756 15.7707 16.6896C15.6137 16.6941 15.4613 16.708 15.2859 16.7174V18.024C15.6137 18.024 15.9137 18.0424 16.2137 18.024C17.1464 17.9685 17.7097 17.5161 17.8945 16.6111C17.9729 16.1124 18.019 15.6093 18.0329 15.106C18.0651 14.6443 18.0608 14.178 18.1069 13.721C18.176 13.0053 18.5038 12.7099 19.2195 12.6638C19.2889 12.6544 19.3534 12.6408 19.4182 12.6177V11.154C19.298 11.14 19.2147 11.1264 19.1271 11.1216Z" fill="#173647"/>
<g style="mix-blend-mode:color">
<rect width="24" height="24" fill="rgba(243, 243, 243, 1)"/>
</g>
</svg>
